<svg height="364" width="200" style="width: 200px; height: 364px; position: absolute; top: 50%; left: 50%; transform: translate(-50%, -50%) scale(1); z-index: 0; cursor: pointer;">
    <g id="SvgjsG1007" featurekey="rootContainer" transform="matrix(1,0,0,1,0,0)" fill="#f44">
        <path xmlns="http://www.w3.org/2000/svg" fill-rule="evenodd" d="M5,65 L100,0 L195, 65 L100, 10 z M5,284 L100,364 L195,279 L100, 354 z"/>
    </g>
    <g id="SvgjsG1008" featurekey="symbolFeature-0" transform="matrix(1.1111111111111112,0,0,1.1111111111111112,44.44444444444444,76.66666666666667)" fill="#f44">
        <title xmlns="http://www.w3.org/2000/svg">building</title>
        <g xmlns="http://www.w3.org/2000/svg" stroke="none" stroke-width="1" fill="none" fill-rule="evenodd">
            <path d="M40.126,37.708719 C39.861,37.708719 39.646,37.923719 39.646,38.189719 L39.646,40.592719 C39.646,40.857719 39.861,41.072719 40.126,41.072719 C40.392,41.072719 40.607,40.857719 40.607,40.592719 L40.607,38.189719 C40.607,37.923719 40.392,37.708719 40.126,37.708719 L40.126,37.708719 Z M32.737,27.051719 C32.472,27.051719 32.257,27.266719 32.257,27.532719 L32.257,28.974719 C32.257,29.239719 32.472,29.454719 32.737,29.454719 C33.003,29.454719 33.218,29.239719 33.218,28.974719 L33.218,27.532719 C33.218,27.266719 33.003,27.051719 32.737,27.051719 L32.737,27.051719 Z M32.737,45.794719 C32.472,45.794719 32.257,46.009719 32.257,46.275719 L32.257,47.716719 C32.257,47.982719 32.472,48.197719 32.737,48.197719 C33.003,48.197719 33.218,47.982719 33.218,47.716719 L33.218,46.275719 C33.218,46.009719 33.003,45.794719 32.737,45.794719 L32.737,45.794719 Z M32.737,21.284719 C32.472,21.284719 32.257,21.500719 32.257,21.765719 L32.257,24.168719 C32.257,24.433719 32.472,24.648719 32.737,24.648719 C33.003,24.648719 33.218,24.433719 33.218,24.168719 L33.218,21.765719 C33.218,21.500719 33.003,21.284719 32.737,21.284719 L32.737,21.284719 Z M36.432,47.999719 C36.166,47.999719 35.951,48.215719 35.951,48.480719 L35.951,50.883719 C35.951,51.148719 36.166,51.364719 36.432,51.364719 C36.698,51.364719 36.913,51.148719 36.913,50.883719 L36.913,48.480719 C36.913,48.215719 36.698,47.999719 36.432,47.999719 L36.432,47.999719 Z M40.126,43.475719 C39.861,43.475719 39.646,43.690719 39.646,43.956719 L39.646,45.397719 C39.646,45.663719 39.861,45.878719 40.126,45.878719 C40.392,45.878719 40.607,45.663719 40.607,45.397719 L40.607,43.956719 C40.607,43.690719 40.392,43.475719 40.126,43.475719 L40.126,43.475719 Z M32.737,51.561719 C32.472,51.561719 32.257,51.776719 32.257,52.042719 L32.257,56.367719 C32.257,56.632719 32.472,56.848719 32.737,56.848719 C33.003,56.848719 33.218,56.632719 33.218,56.367719 L33.218,52.042719 C33.218,51.776719 33.003,51.561719 32.737,51.561719 L32.737,51.561719 Z M36.432,23.970719 C36.166,23.970719 35.951,24.185719 35.951,24.450719 L35.951,26.853719 C35.951,27.119719 36.166,27.334719 36.432,27.334719 C36.698,27.334719 36.913,27.119719 36.913,26.853719 L36.913,24.450719 C36.913,24.185719 36.698,23.970719 36.432,23.970719 L36.432,23.970719 Z M36.432,34.543719 C36.166,34.543719 35.951,34.758719 35.951,35.023719 L35.951,36.465719 C35.951,36.730719 36.166,36.946719 36.432,36.946719 C36.698,36.946719 36.913,36.730719 36.913,36.465719 L36.913,35.023719 C36.913,34.758719 36.698,34.543719 36.432,34.543719 L36.432,34.543719 Z M36.432,38.387719 C36.166,38.387719 35.951,38.603719 35.951,38.868719 L35.951,43.674719 C35.951,43.939719 36.166,44.154719 36.432,44.154719 C36.698,44.154719 36.913,43.939719 36.913,43.674719 L36.913,38.868719 C36.913,38.603719 36.698,38.387719 36.432,38.387719 L36.432,38.387719 Z M32.737,32.338719 C32.472,32.338719 32.257,32.553719 32.257,32.818719 L32.257,36.182719 C32.257,36.448719 32.472,36.663719 32.737,36.663719 C33.003,36.663719 33.218,36.448719 33.218,36.182719 L33.218,32.818719 C33.218,32.553719 33.003,32.338719 32.737,32.338719 L32.737,32.338719 Z M17.263,64.697719 C16.997,64.697719 16.782,64.913719 16.782,65.178719 L16.782,66.620719 C16.782,66.885719 16.997,67.100719 17.263,67.100719 C17.528,67.100719 17.743,66.885719 17.743,66.620719 L17.743,65.178719 C17.743,64.913719 17.528,64.697719 17.263,64.697719 L17.263,64.697719 Z M20.957,69.786719 C20.692,69.786719 20.477,70.001719 20.477,70.266719 L20.477,73.076719 C20.477,73.342719 20.692,73.557719 20.957,73.557719 C21.223,73.557719 21.438,73.342719 21.438,73.076719 L21.438,70.266719 C21.438,70.001719 21.223,69.786719 20.957,69.786719 L20.957,69.786719 Z M17.263,57.489719 C16.997,57.489719 16.782,57.704719 16.782,57.969719 L16.782,60.372719 C16.782,60.638719 16.997,60.853719 17.263,60.853719 C17.528,60.853719 17.743,60.638719 17.743,60.372719 L17.743,57.969719 C17.743,57.704719 17.528,57.489719 17.263,57.489719 L17.263,57.489719 Z M9.874,59.808719 C9.608,59.808719 9.393,60.023719 9.393,60.288719 L9.393,62.691719 C9.393,62.956719 9.608,63.172719 9.874,63.172719 C10.139,63.172719 10.354,62.956719 10.354,62.691719 L10.354,60.288719 C10.354,60.023719 10.139,59.808719 9.874,59.808719 L9.874,59.808719 Z M13.568,58.648719 C13.303,58.648719 13.088,58.863719 13.088,59.129719 L13.088,61.532719 C13.088,61.797719 13.303,62.012719 13.568,62.012719 C13.834,62.012719 14.049,61.797719 14.049,61.532719 L14.049,59.129719 C14.049,58.863719 13.834,58.648719 13.568,58.648719 L13.568,58.648719 Z M29.043,38.303719 C28.777,38.303719 28.562,38.518719 28.562,38.784719 L28.562,43.590719 C28.562,43.855719 28.777,44.070719 29.043,44.070719 C29.309,44.070719 29.524,43.855719 29.524,43.590719 L29.524,38.784719 C29.524,38.518719 29.309,38.303719 29.043,38.303719 L29.043,38.303719 Z M20.957,63.538719 C20.692,63.538719 20.477,63.753719 20.477,64.019719 L20.477,65.460719 C20.477,65.726719 20.692,65.941719 20.957,65.941719 C21.223,65.941719 21.438,65.726719 21.438,65.460719 L21.438,64.019719 C21.438,63.753719 21.223,63.538719 20.957,63.538719 L20.957,63.538719 Z M29.043,33.017719 C28.777,33.017719 28.562,33.232719 28.562,33.497719 L28.562,34.939719 C28.562,35.204719 28.777,35.420719 29.043,35.420719 C29.309,35.420719 29.524,35.204719 29.524,34.939719 L29.524,33.497719 C29.524,33.232719 29.309,33.017719 29.043,33.017719 L29.043,33.017719 Z M29.043,27.250719 C28.777,27.250719 28.562,27.465719 28.562,27.730719 L28.562,30.133719 C28.562,30.399719 28.777,30.614719 29.043,30.614719 C29.309,30.614719 29.524,30.399719 29.524,30.133719 L29.524,27.730719 C29.524,27.465719 29.309,27.250719 29.043,27.250719 L29.043,27.250719 Z M20.957,56.329719 C20.692,56.329719 20.477,56.544719 20.477,56.810719 L20.477,59.213719 C20.477,59.478719 20.692,59.693719 20.957,59.693719 C21.223,59.693719 21.438,59.478719 21.438,59.213719 L21.438,56.810719 C21.438,56.544719 21.223,56.329719 20.957,56.329719 L20.957,56.329719 Z M32.737,40.027719 C32.472,40.027719 32.257,40.242719 32.257,40.508719 L32.257,42.911719 C32.257,43.176719 32.472,43.391719 32.737,43.391719 C33.003,43.391719 33.218,43.176719 33.218,42.911719 L33.218,40.508719 C33.218,40.242719 33.003,40.027719 32.737,40.027719 L32.737,40.027719 Z M70.193,58.854719 C69.927,58.854719 69.712,59.070719 69.712,59.335719 L69.712,60.777719 C69.712,61.042719 69.927,61.257719 70.193,61.257719 C70.458,61.257719 70.673,61.042719 70.673,60.777719 L70.673,59.335719 C70.673,59.070719 70.458,58.854719 70.193,58.854719 L70.193,58.854719 Z M70.193,51.646719 C69.927,51.646719 69.712,51.861719 69.712,52.126719 L69.712,54.529719 C69.712,54.795719 69.927,55.010719 70.193,55.010719 C70.458,55.010719 70.673,54.795719 70.673,54.529719 L70.673,52.126719 C70.673,51.861719 70.458,51.646719 70.193,51.646719 L70.193,51.646719 Z M66.498,43.673719 C66.233,43.673719 66.017,43.889719 66.017,44.154719 L66.017,46.557719 C66.017,46.822719 66.233,47.037719 66.498,47.037719 C66.763,47.037719 66.979,46.822719 66.979,46.557719 L66.979,44.154719 C66.979,43.889719 66.763,43.673719 66.498,43.673719 L66.498,43.673719 Z M70.193,62.699719 C69.927,62.699719 69.712,62.914719 69.712,63.180719 L69.712,67.985719 C69.712,68.251719 69.927,68.466719 70.193,68.466719 C70.458,68.466719 70.673,68.251719 70.673,67.985719 L70.673,63.180719 C70.673,62.914719 70.458,62.699719 70.193,62.699719 L70.193,62.699719 Z M40.126,32.422719 C39.861,32.422719 39.646,32.637719 39.646,32.903719 L39.646,35.305719 C39.646,35.571719 39.861,35.786719 40.126,35.786719 C40.392,35.786719 40.607,35.571719 40.607,35.305719 L40.607,32.903719 C40.607,32.637719 40.392,32.422719 40.126,32.422719 L40.126,32.422719 Z M70.193,70.869719 C69.927,70.869719 69.712,71.084719 69.712,71.350719 L69.712,73.753719 C69.712,74.018719 69.927,74.233719 70.193,74.233719 C70.458,74.233719 70.673,74.018719 70.673,73.753719 L70.673,71.350719 C70.673,71.084719 70.458,70.869719 70.193,70.869719 L70.193,70.869719 Z M73.887,39.432719 C73.622,39.432719 73.406,39.647719 73.406,39.913719 L73.406,42.316719 C73.406,42.581719 73.622,42.796719 73.887,42.796719 C74.152,42.796719 74.368,42.581719 74.368,42.316719 L74.368,39.913719 C74.368,39.647719 74.152,39.432719 73.887,39.432719 L73.887,39.432719 Z M73.887,50.486719 C73.622,50.486719 73.406,50.701719 73.406,50.966719 L73.406,55.772719 C73.406,56.037719 73.622,56.253719 73.887,56.253719 C74.152,56.253719 74.368,56.037719 74.368,55.772719 L74.368,50.966719 C74.368,50.701719 74.152,50.486719 73.887,50.486719 L73.887,50.486719 Z M94.64,37.884719 L78.54,33.742719 C78.533,33.740719 78.526,33.743719 78.519,33.741719 C78.496,33.736719 78.473,33.739719 78.449,33.737719 C78.401,33.734719 78.355,33.735719 78.31,33.746719 C78.301,33.748719 78.291,33.745719 78.281,33.748719 L64.363,37.969719 L64.363,16.619719 C64.363,16.400719 64.215,16.208719 64.003,16.154719 L47.904,12.012719 C47.9,12.011719 47.896,12.012719 47.893,12.011719 C47.838,11.999719 47.781,11.996719 47.725,12.003719 C47.716,12.004719 47.708,12.006719 47.699,12.008719 C47.681,12.011719 47.662,12.012719 47.644,12.018719 L25.056,18.908719 C24.854,18.970719 24.716,19.157719 24.716,19.368719 L24.716,49.993719 L5.342,55.870719 C5.139,55.931719 5,56.118719 5,56.329719 L5,67.707719 C5,67.972719 5.215,68.187719 5.481,68.187719 C5.747,68.187719 5.962,67.972719 5.962,67.707719 L5.962,56.686719 L24.716,50.998719 L24.716,80.402719 C24.716,80.667719 24.931,80.882719 25.196,80.882719 C25.462,80.882719 25.677,80.667719 25.677,80.402719 L25.677,50.400719 L25.677,50.397719 L25.677,19.724719 L47.303,13.127719 L47.303,88.091719 C47.303,88.356719 47.518,88.571719 47.784,88.571719 C48.049,88.571719 48.264,88.356719 48.264,88.091719 L48.264,13.097719 L63.402,16.992719 L63.402,81.597719 C63.402,81.862719 63.617,82.078719 63.883,82.078719 C64.148,82.078719 64.363,81.862719 64.363,81.597719 L64.363,38.973719 L77.94,34.855719 L77.94,75.355719 C77.94,75.621719 78.155,75.836719 78.421,75.836719 C78.686,75.836719 78.901,75.621719 78.901,75.355719 L78.901,34.827719 L94.039,38.722719 L94.039,69.509719 C94.039,69.775719 94.254,69.990719 94.52,69.990719 C94.785,69.990719 95,69.775719 95,69.509719 L95,38.350719 C95,38.130719 94.852,37.939719 94.64,37.884719 L94.64,37.884719 Z M73.887,46.641719 C73.622,46.641719 73.406,46.856719 73.406,47.121719 L73.406,48.563719 C73.406,48.829719 73.622,49.044719 73.887,49.044719 C74.152,49.044719 74.368,48.829719 74.368,48.563719 L74.368,47.121719 C74.368,46.856719 74.152,46.641719 73.887,46.641719 L73.887,46.641719 Z M73.887,61.539719 C73.622,61.539719 73.406,61.754719 73.406,62.020719 L73.406,64.423719 C73.406,64.688719 73.622,64.903719 73.887,64.903719 C74.152,64.903719 74.368,64.688719 74.368,64.423719 L74.368,62.020719 C74.368,61.754719 74.152,61.539719 73.887,61.539719 L73.887,61.539719 Z M43.821,54.811719 C43.555,54.811719 43.34,55.026719 43.34,55.292719 L43.34,57.694719 C43.34,57.960719 43.555,58.175719 43.821,58.175719 C44.087,58.175719 44.301,57.960719 44.301,57.694719 L44.301,55.292719 C44.301,55.026719 44.087,54.811719 43.821,54.811719 L43.821,54.811719 Z M43.821,46.160719 C43.555,46.160719 43.34,46.376719 43.34,46.641719 L43.34,51.447719 C43.34,51.712719 43.555,51.927719 43.821,51.927719 C44.087,51.927719 44.301,51.712719 44.301,51.447719 L44.301,46.641719 C44.301,46.376719 44.087,46.160719 43.821,46.160719 L43.821,46.160719 Z M40.126,24.252719 C39.861,24.252719 39.646,24.467719 39.646,24.732719 L39.646,26.174719 C39.646,26.439719 39.861,26.655719 40.126,26.655719 C40.392,26.655719 40.607,26.439719 40.607,26.174719 L40.607,24.732719 C40.607,24.467719 40.392,24.252719 40.126,24.252719 L40.126,24.252719 Z M43.821,39.432719 C43.555,39.432719 43.34,39.647719 43.34,39.913719 L43.34,41.354719 C43.34,41.620719 43.555,41.835719 43.821,41.835719 C44.087,41.835719 44.301,41.620719 44.301,41.354719 L44.301,39.913719 C44.301,39.647719 44.087,39.432719 43.821,39.432719 L43.821,39.432719 Z M66.498,52.324719 C66.233,52.324719 66.017,52.539719 66.017,52.804719 L66.017,54.246719 C66.017,54.512719 66.233,54.727719 66.498,54.727719 C66.763,54.727719 66.979,54.512719 66.979,54.246719 L66.979,52.804719 C66.979,52.539719 66.763,52.324719 66.498,52.324719 L66.498,52.324719 Z M40.126,18.966719 C39.861,18.966719 39.646,19.181719 39.646,19.446719 L39.646,21.849719 C39.646,22.114719 39.861,22.330719 40.126,22.330719 C40.392,22.330719 40.607,22.114719 40.607,21.849719 L40.607,19.446719 C40.607,19.181719 40.392,18.966719 40.126,18.966719 L40.126,18.966719 Z M66.498,59.533719 C66.233,59.533719 66.017,59.748719 66.017,60.014719 L66.017,61.778719 C66.017,62.043719 66.233,62.258719 66.498,62.258719 C66.763,62.258719 66.979,62.043719 66.979,61.778719 L66.979,60.014719 C66.979,59.748719 66.763,59.533719 66.498,59.533719 L66.498,59.533719 Z M43.821,17.806719 C43.555,17.806719 43.34,18.021719 43.34,18.287719 L43.34,20.689719 C43.34,20.955719 43.555,21.170719 43.821,21.170719 C44.087,21.170719 44.301,20.955719 44.301,20.689719 L44.301,18.287719 C44.301,18.021719 44.087,17.806719 43.821,17.806719 L43.821,17.806719 Z M43.821,25.015719 C43.555,25.015719 43.34,25.230719 43.34,25.495719 L43.34,26.937719 C43.34,27.202719 43.555,27.418719 43.821,27.418719 C44.087,27.418719 44.301,27.202719 44.301,26.937719 L44.301,25.495719 C44.301,25.230719 44.087,25.015719 43.821,25.015719 L43.821,25.015719 Z M43.821,29.821719 C43.555,29.821719 43.34,30.036719 43.34,30.301719 L43.34,34.146719 C43.34,34.411719 43.555,34.626719 43.821,34.626719 C44.087,34.626719 44.301,34.411719 44.301,34.146719 L44.301,30.301719 C44.301,30.036719 44.087,29.821719 43.821,29.821719 L43.821,29.821719 Z" fill="#f44"/>
        </g>
    </g>
    <g id="SvgjsG1009" featurekey="nameFeature-0" transform="matrix(1.2104711964522201,0,0,1.2104711964522201,-1.6503558308044382,180.50083093373033)" fill="#f44">
        <path d="M3.4759 26.07 l1.0963 0.80214 l0 9.4385 l3.6364 0 l0 -10.241 l-4.7326 0 z M11.417 25.027 l0 12.326 c0 1.4171 -1.2299 2.6471 -2.6471 2.6471 l-4.7594 0 c-1.4973 0 -2.6471 -1.2299 -2.6471 -2.6471 l0 -12.326 c0 -1.4973 1.1497 -2.6471 2.6471 -2.6471 l4.7594 0 c1.4973 0 2.6471 1.2299 2.6471 2.6471 z M14.03479946524064 31.604300000000002 l1.0695 0.82888 l0 3.9037 l3.6631 0 l0 -4.7326 l-4.7326 0 z M21.949299465240642 25.053 l0 14.947 l0 0.026738 l-7.3797 -0.026738 c-1.4973 0 -2.6471 -1.1497 -2.6471 -2.6203 l0 -6.8182 c0 -1.4706 1.1497 -2.6203 2.6471 -2.6203 l4.1979 0 l0 -1.8449 l-6.8449 -0.026738 l0 -1.016 c0 -1.4973 1.1497 -2.6471 2.6471 -2.6471 l4.7594 0 c1.4706 0 2.6203 1.1497 2.6203 2.6471 z M25.796829411764705 27.46 l2.4599 -5.0802 l3.5561 0 l-4.2246 8.8235 l4.2513 8.8503 l-3.5829 0 l-2.4599 -5.107 l0 5.1337 l-3.2086 0 l0 -27.166 l-0.026738 0 l-0.66845 -0.82888 l3.9037 0 l0 15.374 z M38.467951871657746 22.513 l3.3155 0 l1.4706 12.086 l1.4973 -12.086 l3.2353 0 l-2.1658 17.594 l-5.107 0 l-0.58824 -7.139 l-0.58824 7.139 l-5.107 0 l-2.0588 -16.791 l-0.66845 -0.80214 l3.7968 0 l1.4706 12.086 z M50.33686256684492 26.07 l1.0963 0.80214 l0 9.4385 l3.6364 0 l0 -10.241 l-4.7326 0 z M58.27796256684492 25.027 l0 12.326 c0 1.4171 -1.2299 2.6471 -2.6471 2.6471 l-4.7594 0 c-1.4973 0 -2.6471 -1.2299 -2.6471 -2.6471 l0 -12.326 c0 -1.4973 1.1497 -2.6471 2.6471 -2.6471 l4.7594 0 c1.4973 0 2.6471 1.2299 2.6471 2.6471 z M60.975899999999996 26.07 l1.0963 0.80214 l0 9.4385 l3.6364 0 l0 -10.241 l-4.7326 0 z M68.91699999999999 25.027 l0 12.326 c0 1.4171 -1.2299 2.6471 -2.6471 2.6471 l-4.7594 0 c-1.4973 0 -2.6471 -1.2299 -2.6471 -2.6471 l0 -12.326 c0 -1.4973 1.1497 -2.6471 2.6471 -2.6471 l4.7594 0 c1.4973 0 2.6471 1.2299 2.6471 2.6471 z M71.64174117647057 25.989 l1.0963 0.82888 l0 9.4652 l3.6631 0 l0 -10.294 l-4.7594 0 z M72.17644117647058 22.299 l4.2246 0 l0 -9.492 l-0.66845 -0.82888 l3.877 0.026738 l0 27.995 l-7.4332 -0.026738 c-1.4973 0 -2.6471 -1.1497 -2.6471 -2.6471 l0 -12.38 c0 -1.4973 1.1497 -2.6471 2.6471 -2.6471 z M87.11762245989304 26.096 l1.0963 0.82888 l0 2.8342 l3.6364 0 l0 -3.6631 l-4.7326 0 z M87.65242245989305 22.433 l4.7594 0 c1.4706 0 2.6203 1.1497 2.6203 2.6471 l0 5.7219 c0 1.4973 -1.1497 2.6471 -2.6203 2.6471 l-4.1979 0 l0 2.9144 l6.8182 0 l0 1.0428 c0 1.4706 -1.1497 2.6203 -2.6203 2.6203 l-4.7594 0 c-1.4973 0 -2.6471 -1.1497 -2.6471 -2.6203 l0 -12.326 c0 -1.4973 1.1497 -2.6471 2.6471 -2.6471 z M98.69253368983956 40.080214 l-3.2353 0 l0 -27.193 l-0.66845 -0.80214 l3.9037 0 l0 27.995 z M101.36361176470587 26.096 l1.0963 0.82888 l0 2.8342 l3.6364 0 l0 -3.6631 l-4.7326 0 z M101.89841176470587 22.433 l4.7594 0 c1.4706 0 2.6203 1.1497 2.6203 2.6471 l0 5.7219 c0 1.4973 -1.1497 2.6471 -2.6203 2.6471 l-4.1979 0 l0 2.9144 l6.8182 0 l0 1.0428 c0 1.4706 -1.1497 2.6203 -2.6203 2.6203 l-4.7594 0 c-1.4973 0 -2.6471 -1.1497 -2.6471 -2.6203 l0 -12.326 c0 -1.4973 1.1497 -2.6471 2.6471 -2.6471 z M108.74068502673795 22.433 l3.7968 0 l1.4973 12.112 l1.4706 -12.112 l3.2353 0 l-2.1658 17.62 l-5.107 0 l-2.0588 -16.791 z M120.95725935828875 31.604300000000002 l1.0695 0.82888 l0 3.9037 l3.6631 0 l0 -4.7326 l-4.7326 0 z M128.87175935828876 25.053 l0 14.947 l0 0.026738 l-7.3797 -0.026738 c-1.4973 0 -2.6471 -1.1497 -2.6471 -2.6203 l0 -6.8182 c0 -1.4706 1.1497 -2.6203 2.6471 -2.6203 l4.1979 0 l0 -1.8449 l-6.8449 -0.026738 l0 -1.016 c0 -1.4973 1.1497 -2.6471 2.6471 -2.6471 l4.7594 0 c1.4706 0 2.6203 1.1497 2.6203 2.6471 z M131.59628663101603 26.15 l1.0963 0.80214 l0 9.3583 l5.1604 0 l0 3.6364 l-5.7219 0 c-1.4706 0 -2.6203 -1.1497 -2.6203 -2.6203 l0 -21.364 l3.1818 0 l0 6.5241 l3.6096 0 l0 3.6364 z M139.93579304812832 26.07 l1.0963 0.80214 l0 9.4385 l3.6364 0 l0 -10.241 l-4.7326 0 z M147.87689304812832 25.027 l0 12.326 c0 1.4171 -1.2299 2.6471 -2.6471 2.6471 l-4.7594 0 c-1.4973 0 -2.6471 -1.2299 -2.6471 -2.6471 l0 -12.326 c0 -1.4973 1.1497 -2.6471 2.6471 -2.6471 l4.7594 0 c1.4973 0 2.6471 1.2299 2.6471 2.6471 z M148.51607486631013 40.10695 l0 -16.765 l-0.66845 -0.82888 l6.4171 0 c1.4706 0 2.6203 1.1497 2.6203 2.6471 l0 1.016 l-6.2567 0 l1.0963 0.82888 l0 13.102 l-3.2086 0 z M159.1551229946524 22.46 l4.7861 0 c1.4171 0 2.6471 1.1765 2.6471 2.6203 l0 2.861 l-3.2086 0 l0 -1.8182 l-4.7594 0 l1.0963 0.82888 l0 0.9893 l6.8717 5 l0 4.4652 c0 1.4973 -1.2299 2.6471 -2.6471 2.6471 l-4.7861 0 c-1.4706 0 -2.6203 -1.1497 -2.6203 -2.6471 l0 -2.861 l3.1818 0 l0 1.8449 l3.6364 0 l0 -1.8449 l-6.8449 -4.9733 l0 -4.492 c0 -1.4706 1.1497 -2.6203 2.6471 -2.6203 z"/>
    </g>
    <g id="SvgjsG1010" featurekey="sloganFeature-0" transform="matrix(1.7845192222272521,0,0,1.7845192222272521,20.000000850925076,228.82824077367468)" fill="#f44">
        <path d="M5.1 14.32 l0.58 0 l0 2.84 c0 1.56 -1.28 2.84 -2.84 2.84 c-1.58 0 -2.84 -1.28 -2.84 -2.84 l0 -2.84 l0.58 0 l0 2.84 c0 1.24 1.02 2.24 2.26 2.24 s2.26 -1 2.26 -2.24 l0 -2.84 z M9.32 14.32 c1.56 0 2.84 1.26 2.84 2.84 c0 1.56 -1.28 2.84 -2.84 2.84 c-0.92 0 -1.74 -0.44 -2.26 -1.12 l0 6.2 l-0.58 0 l0 -10.76 l0.58 0 l0 1.1 c0.52 -0.68 1.34 -1.1 2.26 -1.1 z M9.32 19.4 c1.24 0 2.26 -1 2.26 -2.24 c0 -1.26 -1.02 -2.26 -2.26 -2.26 s-2.26 1 -2.26 2.26 c0 1.24 1.02 2.24 2.26 2.24 z M12.96 20 l0 -14.3 l0.58 0 l0 14.3 l-0.58 0 z M14.640000000000002 20 l0 -5.68 l0.58 0 l0 5.68 l-0.58 0 z M14.920000000000002 12 c0.34 0 0.6 0.26 0.6 0.58 s-0.26 0.58 -0.6 0.58 c-0.32 0 -0.58 -0.26 -0.58 -0.58 s0.26 -0.58 0.58 -0.58 z M19.34 14.32 l0 0.58 c-1.24 0 -2.26 1 -2.26 2.26 l0 2.26 l2.26 0 l0 0.58 l-2.26 0 l0 5.1 l-0.58 0 l0 -5.1 l-0.58 0 l0 -0.58 l0.58 0 l0 -2.36 c0.06 -1.52 1.3 -2.74 2.84 -2.74 z M23.560000000000002 19.4 l0 0.6 c-1.56 0 -2.84 -1.28 -2.84 -2.84 l0 -2.26 l-0.58 0 l0 -0.58 l0.58 0 l0 -8.62 l0.58 0 l0 8.62 l2.26 0 l0 0.58 l-2.26 0 l0 2.26 c0 1.24 1.02 2.24 2.26 2.24 z M24.66 20 l0 -5.68 l0.58 0 l0 5.68 l-0.58 0 z M24.939999999999998 12 c0.34 0 0.6 0.26 0.6 0.58 s-0.26 0.58 -0.6 0.58 c-0.32 0 -0.58 -0.26 -0.58 -0.58 s0.26 -0.58 0.58 -0.58 z M32.019999999999996 17.16 l0 2.84 l-0.58 0 l0 -2.84 c0 -1.26 -1.02 -2.26 -2.26 -2.26 s-2.26 1 -2.26 2.26 l0 2.84 l-0.58 0 l0 -5.68 l0.58 0 l0 1.1 c0.52 -0.68 1.34 -1.1 2.26 -1.1 c1.56 0 2.84 1.26 2.84 2.84 z M37.92 14.32 l0.58 0 l0 2.84 c0 1.12 -0.66 2.08 -1.58 2.54 c0.26 0.14 0.52 0.32 0.74 0.54 c1.12 1.1 1.12 2.9 0 4.02 c-1.1 1.1 -2.9 1.1 -4.02 0 l0.42 -0.42 c0.88 0.88 2.32 0.88 3.2 0 s0.88 -2.3 0 -3.18 s-2.32 -0.88 -3.2 0 l-0.42 -0.42 c0.24 -0.22 0.5 -0.4 0.76 -0.54 c-0.94 -0.46 -1.58 -1.44 -1.58 -2.54 c0 -1.58 1.26 -2.84 2.84 -2.84 c0.92 0 1.74 0.42 2.26 1.1 l0 -1.1 z M35.66 19.4 c1.24 0 2.26 -1 2.26 -2.24 c0 -1.26 -1.02 -2.26 -2.26 -2.26 s-2.26 1 -2.26 2.26 c0 1.24 1.02 2.24 2.26 2.24 z M44.779999999999994 18.94 c0.88 0.68 2.16 0.62 2.98 -0.2 l0.4 0.42 c-1.1 1.1 -2.9 1.1 -4.02 0 c-1.1 -1.1 -1.1 -2.9 0 -4.02 c1.04 -1.04 2.7 -1.1 3.8 -0.2 l0.02 0 c0.2 0.2 0.2 0.2 0.42 0.4 z M44.559999999999995 15.559999999999999 c-0.8 0.8 -0.88 2.08 -0.2 2.96 l3.18 -3.16 c-0.88 -0.68 -2.16 -0.62 -2.98 0.2 z M51.6 14.32 l0.66 0 l-1.42 2.84 l1.42 2.84 l-0.66 0 l-1.08 -2.2 l-1.1 2.2 l-0.64 0 l1.4 -2.84 l-1.4 -2.84 l0.64 0 l1.1 2.18 z M57.52 18.74 l0.4 0.42 c-1.1 1.1 -2.9 1.1 -4.02 0 c-1.1 -1.1 -1.1 -2.9 0 -4.02 c1.12 -1.1 2.92 -1.1 4.02 0 l-0.4 0.42 c-0.88 -0.88 -2.32 -0.88 -3.2 0 s-0.88 2.3 0 3.18 s2.32 0.88 3.2 0 z M59.8 18.94 c0.88 0.68 2.16 0.62 2.98 -0.2 l0.4 0.42 c-1.1 1.1 -2.9 1.1 -4.02 0 c-1.1 -1.1 -1.1 -2.9 0 -4.02 c1.04 -1.04 2.7 -1.1 3.8 -0.2 l0.02 0 c0.2 0.2 0.2 0.2 0.42 0.4 z M59.58 15.559999999999999 c-0.8 0.8 -0.88 2.08 -0.2 2.96 l3.18 -3.16 c-0.88 -0.68 -2.16 -0.62 -2.98 0.2 z M64.2 20 l0 -14.3 l0.58 0 l0 14.3 l-0.58 0 z M65.58 20 l0 -14.3 l0.58 0 l0 14.3 l-0.58 0 z M68.44 18.94 c0.88 0.68 2.16 0.62 2.98 -0.2 l0.4 0.42 c-1.1 1.1 -2.9 1.1 -4.02 0 c-1.1 -1.1 -1.1 -2.9 0 -4.02 c1.04 -1.04 2.7 -1.1 3.8 -0.2 l0.02 0 c0.2 0.2 0.2 0.2 0.42 0.4 z M68.22 15.559999999999999 c-0.8 0.8 -0.88 2.08 -0.2 2.96 l3.18 -3.16 c-0.88 -0.68 -2.16 -0.62 -2.98 0.2 z M78.51999999999998 17.16 l0 2.84 l-0.58 0 l0 -2.84 c0 -1.26 -1.02 -2.26 -2.26 -2.26 s-2.26 1 -2.26 2.26 l0 2.84 l-0.58 0 l0 -5.68 l0.58 0 l0 1.1 c0.52 -0.68 1.34 -1.1 2.26 -1.1 c1.56 0 2.84 1.26 2.84 2.84 z M83.77999999999999 18.74 l0.4 0.42 c-1.1 1.1 -2.9 1.1 -4.02 0 c-1.1 -1.1 -1.1 -2.9 0 -4.02 c1.12 -1.1 2.92 -1.1 4.02 0 l-0.4 0.42 c-0.88 -0.88 -2.32 -0.88 -3.2 0 s-0.88 2.3 0 3.18 s2.32 0.88 3.2 0 z M86.05999999999999 18.94 c0.88 0.68 2.16 0.62 2.98 -0.2 l0.4 0.42 c-1.1 1.1 -2.9 1.1 -4.02 0 c-1.1 -1.1 -1.1 -2.9 0 -4.02 c1.04 -1.04 2.7 -1.1 3.8 -0.2 l0.02 0 c0.2 0.2 0.2 0.2 0.42 0.4 z M85.83999999999999 15.559999999999999 c-0.8 0.8 -0.88 2.08 -0.2 2.96 l3.18 -3.16 c-0.88 -0.68 -2.16 -0.62 -2.98 0.2 z"/>
    </g>
</svg>